<svg viewBox="-20.67655360983049,-20.67655360983049,41.35310721966098,21.35310721966098">
<circle cx="-20" cy="0" r="0.5412428878643918" fill="#acc768" class="Miljöpartiet"></circle>
<circle cx="-19.9553375725" cy="-1.3358526749" r="0.5412428878643918" fill="#acc768" class="Miljöpartiet"></circle>
<circle cx="-19.8215497631" cy="-2.6657391075" r="0.5412428878643918" fill="#acc768" class="Miljöpartiet"></circle>
<circle cx="-19.5992341007" cy="-3.9837197021" r="0.5412428878643918" fill="#c13b38" class="Socialdemokr."></circle>
<circle cx="-19.2893835011" cy="-5.2839080374" r="0.5412428878643918" fill="#c13b38" class="Socialdemokr."></circle>
<circle cx="-18.8933818322" cy="-6.5604971568" r="0.5412428878643918" fill="#c13b38" class="Socialdemokr."></circle>
<circle cx="-18.4129977335" cy="-7.8077855033" r="0.5412428878643918" fill="#c13b38" class="Socialdemokr."></circle>
<circle cx="-17.8503767172" cy="-9.0202023843" r="0.5412428878643918" fill="#c13b38" class="Socialdemokr."></circle>
<circle cx="-17.2080315852" cy="-10.1923328518" r="0.5412428878643918" fill="#c13b38" class="Socialdemokr."></circle>
<circle cx="-16.4888312068" cy="-11.3189418866" r="0.5412428878643918" fill="#c13b38" class="Socialdemokr."></circle>

<circle cx="-15.6959877056" cy="-12.3949977792" r="0.5412428878643918" fill="#c13b38" class="Socialdemokr."></circle>
<circle cx="-14.833042113" cy="-13.4156946028" r="0.5412428878643918" fill="#c13b38" class="Socialdemokr."></circle>
<circle cx="-13.9038485535" cy="-14.3764736776" r="0.5412428878643918" fill="#c13b38" class="Socialdemokr."></circle>

<circle cx="-12.9125570312" cy="-15.2730439309" r="0.5412428878643918" fill="#c13b38" class="Socialdemokr."></circle>
<circle cx="-11.8635948946" cy="-16.1014010626" r="0.5412428878643918" fill="#c13b38" class="Socialdemokr."></circle>
<circle cx="-10.7616470633" cy="-16.8578454283" r="0.5412428878643918" fill="#c13b38" class="Socialdemokr."></circle>
<circle cx="-9.6116351037" cy="-17.5389985641" r="0.5412428878643918" fill="#c13b38" class="Socialdemokr."></circle>
<circle cx="-8.4186952486" cy="-18.1418182747" r="0.5412428878643918" fill="#c13b38" class="Socialdemokr.">
</circle>

<circle cx="-7.1881554568" cy="-18.6636122208" r="0.5412428878643918" fill="#e7d960" class="Sverigedemokr."></circle>
<circle cx="-5.9255116177" cy="-19.1020499441" r="0.5412428878643918" fill="#e7d960" class="Sverigedemokr."></circle>
<circle cx="-4.6364030054" cy="-19.4551732753" r="0.5412428878643918" fill="#e7d960" class="Sverigedemokr."></circle>
<circle cx="-3.3265870917" cy="-19.7214050798" r="0.5412428878643918" fill="#e7d960" class="Sverigedemokr."></circle>
<circle cx="-2.0019138325" cy="-19.8995563018" r="0.5412428878643918" fill="#e7d960" class="Sverigedemokr."></circle>
<circle cx="-0.6682995402" cy="-19.9888312746" r="0.5412428878643918" fill="#e7d960" class="Sverigedemokr."></circle>
<circle cx="0.6682995402" cy="-19.9888312746" r="0.5412428878643918" fill="#e7d960" class="Sverigedemokr."></circle>
<circle cx="2.0019138325" cy="-19.8995563018" r="0.5412428878643918" fill="#e7d960" class="Sverigedemokr."></circle>
<circle cx="3.3265870917" cy="-19.7214050798" r="0.5412428878643918" fill="#e7d960" class="Sverigedemokr."></circle>
<circle cx="4.6364030054" cy="-19.4551732753" r="0.5412428878643918" fill="#78ae5a" class="Centerpartiet"></circle>
<circle cx="5.9255116177" cy="-19.1020499441" r="0.5412428878643918" fill="#78ae5a" class="Centerpartiet"></circle>
<circle cx="7.1881554568" cy="-18.6636122208" r="0.5412428878643918" fill="#78ae5a" class="Centerpartiet"></circle>
<circle cx="8.4186952486" cy="-18.1418182747" r="0.5412428878643918" fill="#78ae5a" class="Centerpartiet"></circle>
<circle cx="9.6116351037" cy="-17.5389985641" r="0.5412428878643918" fill="#78ae5a" class="Centerpartiet"></circle>
<circle cx="10.7616470633" cy="-16.8578454283" r="0.5412428878643918" fill="#78ae5a" class="Centerpartiet"></circle>
<circle cx="11.8635948946" cy="-16.1014010626" r="0.5412428878643918" fill="#378cab" class="Liberalerna"></circle>
<circle cx="12.9125570312" cy="-15.2730439309" r="0.5412428878643918" fill="#378cab" class="Liberalerna"></circle>
<circle cx="13.9038485535" cy="-14.3764736776" r="0.5412428878643918" fill="#378cab" class="Liberalerna"></circle>
<circle cx="14.833042113" cy="-13.4156946028" r="0.5412428878643918" fill="#88c7d9" class="Moderaterna"></circle>
<circle cx="15.6959877056" cy="-12.3949977792" r="0.5412428878643918" fill="#88c7d9" class="Moderaterna"></circle>
<circle cx="16.4888312068" cy="-11.3189418866" r="0.5412428878643918" fill="#88c7d9" class="Moderaterna"></circle>
<circle cx="17.2080315852" cy="-10.1923328518" r="0.5412428878643918" fill="#88c7d9" class="Moderaterna"></circle>
<circle cx="17.8503767172" cy="-9.0202023843" r="0.5412428878643918" fill="#88c7d9" class="Moderaterna"></circle>
<circle cx="18.4129977335" cy="-7.8077855033" r="0.5412428878643918" fill="#88c7d9" class="Moderaterna"></circle>
<circle cx="18.8933818322" cy="-6.5604971568" r="0.5412428878643918" fill="#88c7d9" class="Moderaterna"></circle>
<circle cx="19.2893835011" cy="-5.2839080374" r="0.5412428878643918" fill="#88c7d9" class="Moderaterna"></circle>
<circle cx="19.5992341007" cy="-3.9837197021" r="0.5412428878643918" fill="#88c7d9" class="Moderaterna"></circle>
<circle cx="19.8215497631" cy="-2.6657391075" r="0.5412428878643918" fill="#366da3" class="Kristdemokr."></circle>
<circle cx="19.9553375725" cy="-1.3358526749" r="0.5412428878643918" fill="#366da3" class="Kristdemokr."></circle>
<circle cx="20" cy="0" r="0.5412428878643918" fill="#366da3" class="Kristdemokr."></circle>
<circle cx="-18.6468927803" cy="0" r="0.5412428878643918" fill="#acc768" class="Miljöpartiet"></circle>
<circle cx="-18.5993826347" cy="-1.3302541002" r="0.5412428878643918" fill="#acc768" class="Miljöpartiet"></circle>
<circle cx="-18.4570942984" cy="-2.6537295303" r="0.5412428878643918" fill="#acc768" class="Miljöpartiet"></circle>
<circle cx="-18.2207528404" cy="-3.9636821631" r="0.5412428878643918" fill="#c13b38" class="Socialdemokr."></circle>
<circle cx="-17.8915626025" cy="-5.2534367802" r="0.5412428878643918" fill="#c13b38" class="Socialdemokr."></circle>
<circle cx="-17.4712010626" cy="-6.5164210876" r="0.5412428878643918" fill="#c13b38" class="Socialdemokr."></circle>
<circle cx="-16.9618102869" cy="-7.7461992068" r="0.5412428878643918" fill="#c13b38" class="Socialdemokr."></circle>
<circle cx="-16.365986014" cy="-8.9365044705" r="0.5412428878643918" fill="#c13b38" class="Socialdemokr."></circle>
<circle cx="-15.6867644278" cy="-10.0812713558" r="0.5412428878643918" fill="#c13b38" class="Socialdemokr."></circle>
<circle cx="-14.9276066858" cy="-11.1746663931" r="0.5412428878643918" fill="#c13b38" class="Socialdemokr."></circle>
<circle cx="-14.0923812818" cy="-12.2111178919" r="0.5412428878643918" fill="#c13b38" class="Socialdemokr."></circle>
<circle cx="-13.185344333" cy="-13.185344333" r="0.5412428878643918" fill="#c13b38" class="Socialdemokr."></circle>
<circle cx="-12.2111178919" cy="-14.0923812818" r="0.5412428878643918" fill="#c13b38" class="Socialdemokr."></circle>
<circle cx="-11.1746663931" cy="-14.9276066858" r="0.5412428878643918" fill="#c13b38" class="Socialdemokr."></circle>
<circle cx="-10.0812713558" cy="-15.6867644278" r="0.5412428878643918" fill="#c13b38" class="Socialdemokr."></circle>
<circle cx="-8.9365044705" cy="-16.365986014" r="0.5412428878643918" fill="#c13b38" class="Socialdemokr."></circle>
<circle cx="-7.7461992068" cy="-16.9618102869" r="0.5412428878643918" fill="#c13b38" class="Socialdemokr."></circle>
<circle cx="-6.5164210876" cy="-17.4712010626" r="0.5412428878643918" fill="#e7d960" class="Sverigedemokr."></circle>
<circle cx="-5.2534367802" cy="-17.8915626025" r="0.5412428878643918" fill="#e7d960" class="Sverigedemokr."></circle>
<circle cx="-3.9636821631" cy="-18.2207528404" r="0.5412428878643918" fill="#e7d960" class="Sverigedemokr."></circle>
<circle cx="-2.6537295303" cy="-18.4570942984" r="0.5412428878643918" fill="#e7d960" class="Sverigedemokr."></circle>
<circle cx="-1.3302541002" cy="-18.5993826347" r="0.5412428878643918" fill="#e7d960" class="Sverigedemokr."></circle>
<circle cx="0" cy="-18.6468927803" r="0.5412428878643918" fill="#e7d960" class="Sverigedemokr."></circle>
<circle cx="1.3302541002" cy="-18.5993826347" r="0.5412428878643918" fill="#e7d960" class="Sverigedemokr."></circle>
<circle cx="2.6537295303" cy="-18.4570942984" r="0.5412428878643918" fill="#e7d960" class="Sverigedemokr."></circle>
<circle cx="3.9636821631" cy="-18.2207528404" r="0.5412428878643918" fill="#78ae5a" class="Centerpartiet"></circle>
<circle cx="5.2534367802" cy="-17.8915626025" r="0.5412428878643918" fill="#78ae5a" class="Centerpartiet"></circle>
<circle cx="6.5164210876" cy="-17.4712010626" r="0.5412428878643918" fill="#78ae5a" class="Centerpartiet"></circle>
<circle cx="7.7461992068" cy="-16.9618102869" r="0.5412428878643918" fill="#78ae5a" class="Centerpartiet"></circle>
<circle cx="8.9365044705" cy="-16.365986014" r="0.5412428878643918" fill="#78ae5a" class="Centerpartiet"></circle>
<circle cx="10.0812713558" cy="-15.6867644278" r="0.5412428878643918" fill="#78ae5a" class="Centerpartiet"></circle>
<circle cx="11.1746663931" cy="-14.9276066858" r="0.5412428878643918" fill="#378cab" class="Liberalerna"></circle>
<circle cx="12.2111178919" cy="-14.0923812818" r="0.5412428878643918" fill="#378cab" class="Liberalerna"></circle>
<circle cx="13.185344333" cy="-13.185344333" r="0.5412428878643918" fill="#378cab" class="Liberalerna"></circle>
<circle cx="14.0923812818" cy="-12.2111178919" r="0.5412428878643918" fill="#88c7d9" class="Moderaterna"></circle>
<circle cx="14.9276066858" cy="-11.1746663931" r="0.5412428878643918" fill="#88c7d9" class="Moderaterna"></circle>
<circle cx="15.6867644278" cy="-10.0812713558" r="0.5412428878643918" fill="#88c7d9" class="Moderaterna"></circle>
<circle cx="16.365986014" cy="-8.9365044705" r="0.5412428878643918" fill="#88c7d9" class="Moderaterna"></circle>
<circle cx="16.9618102869" cy="-7.7461992068" r="0.5412428878643918" fill="#88c7d9" class="Moderaterna"></circle>
<circle cx="17.4712010626" cy="-6.5164210876" r="0.5412428878643918" fill="#88c7d9" class="Moderaterna"></circle>
<circle cx="17.8915626025" cy="-5.2534367802" r="0.5412428878643918" fill="#88c7d9" class="Moderaterna"></circle>
<circle cx="18.2207528404" cy="-3.9636821631" r="0.5412428878643918" fill="#88c7d9" class="Moderaterna"></circle>
<circle cx="18.4570942984" cy="-2.6537295303" r="0.5412428878643918" fill="#366da3" class="Kristdemokr."></circle>
<circle cx="18.5993826347" cy="-1.3302541002" r="0.5412428878643918" fill="#366da3" class="Kristdemokr."></circle>
<circle cx="18.6468927803" cy="0" r="0.5412428878643918" fill="#366da3" class="Kristdemokr."></circle>
<circle cx="-17.2937855607" cy="0" r="0.5412428878643918" fill="#acc768" class="Miljöpartiet"></circle>
<circle cx="-17.2404745913" cy="-1.3568547768" r="0.5412428878643918" fill="#acc768" class="Miljöpartiet"></circle>
<circle cx="-17.080870363" cy="-2.7053440927" r="0.5412428878643918" fill="#acc768" class="Miljöpartiet"></circle>
<circle cx="-16.815956889" cy="-4.0371540627" r="0.5412428878643918" fill="#c13b38" class="Socialdemokr."></circle>
<circle cx="-16.4473674489" cy="-5.3440736353" r="0.5412428878643918" fill="#c13b38" class="Socialdemokr."></circle>
<circle cx="-15.9773745191" cy="-6.6180452169" r="0.5412428878643918" fill="#c13b38" class="Socialdemokr."></circle>
<circle cx="-15.4088757625" cy="-7.8512143491" r="0.5412428878643918" fill="#c13b38" class="Socialdemokr."></circle>
<circle cx="-14.7453761628" cy="-9.035978134" r="0.5412428878643918" fill="#c13b38" class="Socialdemokr."></circle>
<circle cx="-13.9909664157" cy="-10.1650321089" r="0.5412428878643918" fill="#c13b38" class="Socialdemokr."></circle>
<circle cx="-13.1502977081" cy="-11.2314152806" r="0.5412428878643918" fill="#c13b38" class="Socialdemokr."></circle>
<circle cx="-12.2285530423" cy="-12.2285530423" r="0.5412428878643918" fill="#c13b38" class="Socialdemokr."></circle>
<circle cx="-11.2314152806" cy="-13.1502977081" r="0.5412428878643918" fill="#c13b38" class="Socialdemokr."></circle>
<circle cx="-10.1650321089" cy="-13.9909664157" r="0.5412428878643918" fill="#c13b38" class="Socialdemokr."></circle>
<circle cx="-9.035978134" cy="-14.7453761628" r="0.5412428878643918" fill="#c13b38" class="Socialdemokr."></circle>
<circle cx="-7.8512143491" cy="-15.4088757625" r="0.5412428878643918" fill="#c13b38" class="Socialdemokr."></circle>
<circle cx="-6.6180452169" cy="-15.9773745191" r="0.5412428878643918" fill="#c13b38" class="Socialdemokr."></circle>
<circle cx="-5.3440736353" cy="-16.4473674489" r="0.5412428878643918" fill="#e7d960" class="Sverigedemokr."></circle>
<circle cx="-4.0371540627" cy="-16.815956889" r="0.5412428878643918" fill="#e7d960" class="Sverigedemokr."></circle>

<circle cx="-2.7053440927" cy="-17.080870363" r="0.5412428878643918" fill="#e7d960" class="Sverigedemokr."></circle>
<circle cx="-1.3568547768" cy="-17.2404745913" r="0.5412428878643918" fill="#e7d960" class="Sverigedemokr."></circle>
<circle cx="0" cy="-17.2937855607" r="0.5412428878643918" fill="#e7d960" class="Sverigedemokr."></circle>
<circle cx="1.3568547768" cy="-17.2404745913" r="0.5412428878643918" fill="#e7d960" class="Sverigedemokr."></circle>
<circle cx="2.7053440927" cy="-17.080870363" r="0.5412428878643918" fill="#e7d960" class="Sverigedemokr."></circle>
<circle cx="4.0371540627" cy="-16.815956889" r="0.5412428878643918" fill="#78ae5a" class="Centerpartiet"></circle>
<circle cx="5.3440736353" cy="-16.4473674489" r="0.5412428878643918" fill="#78ae5a" class="Centerpartiet"></circle>
<circle cx="6.6180452169" cy="-15.9773745191" r="0.5412428878643918" fill="#78ae5a" class="Centerpartiet"></circle>
<circle cx="7.8512143491" cy="-15.4088757625" r="0.5412428878643918" fill="#78ae5a" class="Centerpartiet"></circle>
<circle cx="9.035978134" cy="-14.7453761628" r="0.5412428878643918" fill="#78ae5a" class="Centerpartiet"></circle>
<circle cx="10.1650321089" cy="-13.9909664157" r="0.5412428878643918" fill="#78ae5a" class="Centerpartiet"></circle>
<circle cx="11.2314152806" cy="-13.1502977081" r="0.5412428878643918" fill="#378cab" class="Liberalerna"></circle>
<circle cx="12.2285530423" cy="-12.2285530423" r="0.5412428878643918" fill="#378cab" class="Liberalerna"></circle>
<circle cx="13.1502977081" cy="-11.2314152806" r="0.5412428878643918" fill="#88c7d9" class="Moderaterna"></circle>
<circle cx="13.9909664157" cy="-10.1650321089" r="0.5412428878643918" fill="#88c7d9" class="Moderaterna"></circle>
<circle cx="14.7453761628" cy="-9.035978134" r="0.5412428878643918" fill="#88c7d9" class="Moderaterna"></circle>
<circle cx="15.4088757625" cy="-7.8512143491" r="0.5412428878643918" fill="#88c7d9" class="Moderaterna"></circle>
<circle cx="15.9773745191" cy="-6.6180452169" r="0.5412428878643918" fill="#88c7d9" class="Moderaterna"></circle>
<circle cx="16.4473674489" cy="-5.3440736353" r="0.5412428878643918" fill="#88c7d9" class="Moderaterna"></circle>
<circle cx="16.815956889" cy="-4.0371540627" r="0.5412428878643918" fill="#88c7d9" class="Moderaterna"></circle>
<circle cx="17.080870363" cy="-2.7053440927" r="0.5412428878643918" fill="#88c7d9" class="Moderaterna"></circle>
<circle cx="17.2404745913" cy="-1.3568547768" r="0.5412428878643918" fill="#366da3" class="Kristdemokr."></circle>
<circle cx="17.2937855607" cy="0" r="0.5412428878643918" fill="#366da3" class="Kristdemokr."></circle>
<circle cx="-15.940678341" cy="0" r="0.5412428878643918" fill="#acc768" class="Miljöpartiet"></circle>
<circle cx="-15.8832518647" cy="-1.3518639635" r="0.5412428878643918" fill="#acc768" class="Miljöpartiet"></circle>
<circle cx="-15.7113861946" cy="-2.6939877161" r="0.5412428878643918" fill="#acc768" class="Miljöpartiet"></circle>
<circle cx="-15.4263196271" cy="-4.0167012255" r="0.5412428878643918" fill="#c13b38" class="Socialdemokr."></circle>
<circle cx="-15.0301060731" cy="-5.3104743106" r="0.5412428878643918" fill="#c13b38" class="Socialdemokr."></circle>
<circle cx="-14.5256002604" cy="-6.5659853065" r="0.5412428878643918" fill="#c13b38" class="Socialdemokr."></circle>
<circle cx="-13.9164371651" cy="-7.7741882279" r="0.5412428878643918" fill="#c13b38" class="Socialdemokr."></circle>
<circle cx="-13.207005821" cy="-8.9263779449" r="0.5412428878643918" fill="#c13b38" class="Socialdemokr."></circle>
<circle cx="-12.4024176974" cy="-10.0142529043" r="0.5412428878643918" fill="#c13b38" class="Socialdemokr."></circle>
<circle cx="-11.5084698701" cy="-11.029974942" r="0.5412428878643918" fill="#c13b38" class="Socialdemokr."></circle>
<circle cx="-10.5316032536" cy="-11.9662257575" r="0.5412428878643918" fill="#c13b38" class="Socialdemokr."></circle>
<circle cx="-9.4788561944" cy="-12.8162596423" r="0.5412428878643918" fill="#c13b38" class="Socialdemokr."></circle>
<circle cx="-8.357813759" cy="-13.5739520826" r="0.5412428878643918" fill="#c13b38" class="Socialdemokr."></circle>
<circle cx="-7.1765530841" cy="-14.2338438871" r="0.5412428878643918" fill="#c13b38" class="Socialdemokr."></circle>
<circle cx="-5.9435851797" cy="-14.7911805203" r="0.5412428878643918" fill="#c13b38" class="Socialdemokr."></circle>
<circle cx="-4.6677936078" cy="-15.2419463589" r="0.5412428878643918" fill="#e7d960" class="Sverigedemokr."></circle>
<circle cx="-3.3583704761" cy="-15.5828936246" r="0.5412428878643918" fill="#e7d960" class="Sverigedemokr."></circle>
<circle cx="-2.0247502082" cy="-15.8115657848" r="0.5412428878643918" fill="#e7d960" class="Sverigedemokr."></circle>
<circle cx="-0.6765415686" cy="-15.9263152511" r="0.5412428878643918" fill="#e7d960" class="Sverigedemokr."></circle>
<circle cx="0.6765415686" cy="-15.9263152511" r="0.5412428878643918" fill="#e7d960" class="Sverigedemokr."></circle>
<circle cx="2.0247502082" cy="-15.8115657848" r="0.5412428878643918" fill="#e7d960" class="Sverigedemokr."></circle>
<circle cx="3.3583704761" cy="-15.5828936246" r="0.5412428878643918" fill="#78ae5a" class="Centerpartiet"></circle>
<circle cx="4.6677936078" cy="-15.2419463589" r="0.5412428878643918" fill="#78ae5a" class="Centerpartiet"></circle>
<circle cx="5.9435851797" cy="-14.7911805203" r="0.5412428878643918" fill="#78ae5a" class="Centerpartiet"></circle>
<circle cx="7.1765530841" cy="-14.2338438871" r="0.5412428878643918" fill="#78ae5a" class="Centerpartiet"></circle>
<circle cx="8.357813759" cy="-13.5739520826" r="0.5412428878643918" fill="#78ae5a" class="Centerpartiet"></circle>
<circle cx="9.4788561944" cy="-12.8162596423" r="0.5412428878643918" fill="#78ae5a" class="Centerpartiet"></circle>
<circle cx="10.5316032536" cy="-11.9662257575" r="0.5412428878643918" fill="#378cab" class="Liberalerna"></circle>
<circle cx="11.5084698701" cy="-11.029974942" r="0.5412428878643918" fill="#378cab" class="Liberalerna"></circle>
<circle cx="12.4024176974" cy="-10.0142529043" r="0.5412428878643918" fill="#88c7d9" class="Moderaterna"></circle>
<circle cx="13.207005821" cy="-8.9263779449" r="0.5412428878643918" fill="#88c7d9" class="Moderaterna"></circle>
<circle cx="13.9164371651" cy="-7.7741882279" r="0.5412428878643918" fill="#88c7d9" class="Moderaterna"></circle>
<circle cx="14.5256002604" cy="-6.5659853065" r="0.5412428878643918" fill="#88c7d9" class="Moderaterna"></circle>
<circle cx="15.0301060731" cy="-5.3104743106" r="0.5412428878643918" fill="#88c7d9" class="Moderaterna"></circle>
<circle cx="15.4263196271" cy="-4.0167012255" r="0.5412428878643918" fill="#88c7d9" class="Moderaterna"></circle>
<circle cx="15.7113861946" cy="-2.6939877161" r="0.5412428878643918" fill="#88c7d9" class="Moderaterna"></circle>
<circle cx="15.8832518647" cy="-1.3518639635" r="0.5412428878643918" fill="#366da3" class="Kristdemokr."></circle>
<circle cx="15.940678341" cy="0" r="0.5412428878643918" fill="#366da3" class="Kristdemokr."></circle>
<circle cx="-14.5875711214" cy="0" r="0.5412428878643918" fill="#acc768" class="Miljöpartiet"></circle>
<circle cx="-14.5253431147" cy="-1.3459712559" r="0.5412428878643918" fill="#acc768" class="Miljöpartiet"></circle>
<circle cx="-14.339190002" cy="-2.6804591597" r="0.5412428878643918" fill="#acc768" class="Miljöpartiet"></circle>
<circle cx="-14.0306999761" cy="-3.992078331" r="0.5412428878643918" fill="#c13b38" class="Socialdemokr."></circle>
<circle cx="-13.6025049651" cy="-5.2696384975" r="0.5412428878643918" fill="#c13b38" class="Socialdemokr."></circle>
<circle cx="-13.0582581779" cy="-6.5022399664" r="0.5412428878643918" fill="#c13b38" class="Socialdemokr."></circle>
<circle cx="-12.4026029361" cy="-7.6793666165" r="0.5412428878643918" fill="#c13b38" class="Socialdemokr."></circle>
<circle cx="-11.641133059" cy="-8.7909756184" r="0.5412428878643918" fill="#c13b38" class="Socialdemokr."></circle>
<circle cx="-10.7803451393" cy="-9.8275831158" r="0.5412428878643918" fill="#c13b38" class="Socialdemokr."></circle>
<circle cx="-9.8275831158" cy="-10.7803451393" r="0.5412428878643918" fill="#c13b38" class="Socialdemokr."></circle>
<circle cx="-8.7909756184" cy="-11.641133059" r="0.5412428878643918" fill="#c13b38" class="Socialdemokr."></circle>
<circle cx="-7.6793666165" cy="-12.4026029361" r="0.5412428878643918" fill="#c13b38" class="Socialdemokr."></circle>
<circle cx="-6.5022399664" cy="-13.0582581779" r="0.5412428878643918" fill="#c13b38" class="Socialdemokr."></circle>
<circle cx="-5.2696384975" cy="-13.6025049651" r="0.5412428878643918" fill="#e7d960" class="Sverigedemokr."></circle>
<circle cx="-3.992078331" cy="-14.0306999761" r="0.5412428878643918" fill="#e7d960" class="Sverigedemokr."></circle>
<circle cx="-2.6804591597" cy="-14.339190002" r="0.5412428878643918" fill="#e7d960" class="Sverigedemokr."></circle>
<circle cx="-1.3459712559" cy="-14.5253431147" r="0.5412428878643918" fill="#e7d960" class="Sverigedemokr."></circle>
<circle cx="0" cy="-14.5875711214" r="0.5412428878643918" fill="#e7d960" class="Sverigedemokr."></circle>
<circle cx="1.3459712559" cy="-14.5253431147" r="0.5412428878643918" fill="#e7d960" class="Sverigedemokr."></circle>
<circle cx="2.6804591597" cy="-14.339190002" r="0.5412428878643918" fill="#78ae5a" class="Centerpartiet"></circle>
<circle cx="3.992078331" cy="-14.0306999761" r="0.5412428878643918" fill="#78ae5a" class="Centerpartiet"></circle>
<circle cx="5.2696384975" cy="-13.6025049651" r="0.5412428878643918" fill="#78ae5a" class="Centerpartiet"></circle>
<circle cx="6.5022399664" cy="-13.0582581779" r="0.5412428878643918" fill="#78ae5a" class="Centerpartiet"></circle>
<circle cx="7.6793666165" cy="-12.4026029361" r="0.5412428878643918" fill="#78ae5a" class="Centerpartiet"></circle>
<circle cx="8.7909756184" cy="-11.641133059" r="0.5412428878643918" fill="#78ae5a" class="Centerpartiet"></circle>
<circle cx="9.8275831158" cy="-10.7803451393" r="0.5412428878643918" fill="#378cab" class="Liberalerna"></circle>
<circle cx="10.7803451393" cy="-9.8275831158" r="0.5412428878643918" fill="#88c7d9" class="Moderaterna"></circle>
<circle cx="11.641133059" cy="-8.7909756184" r="0.5412428878643918" fill="#88c7d9" class="Moderaterna"></circle>
<circle cx="12.4026029361" cy="-7.6793666165" r="0.5412428878643918" fill="#88c7d9" class="Moderaterna"></circle>
<circle cx="13.0582581779" cy="-6.5022399664" r="0.5412428878643918" fill="#88c7d9" class="Moderaterna"></circle>
<circle cx="13.6025049651" cy="-5.2696384975" r="0.5412428878643918" fill="#88c7d9" class="Moderaterna"></circle>
<circle cx="14.0306999761" cy="-3.992078331" r="0.5412428878643918" fill="#88c7d9" class="Moderaterna"></circle>
<circle cx="14.339190002" cy="-2.6804591597" r="0.5412428878643918" fill="#88c7d9" class="Moderaterna"></circle>
<circle cx="14.5253431147" cy="-1.3459712559" r="0.5412428878643918" fill="#366da3" class="Kristdemokr."></circle>
<circle cx="14.5875711214" cy="0" r="0.5412428878643918" fill="#366da3" class="Kristdemokr."></circle>
<circle cx="-13.2344639017" cy="0" r="0.5412428878643918" fill="#acc768" class="Miljöpartiet"></circle>
<circle cx="-13.1665621473" cy="-1.3389085053" r="0.5412428878643918" fill="#acc768" class="Miljöpartiet"></circle>
<circle cx="-12.9635536481" cy="-2.6640779976" r="0.5412428878643918" fill="#c13b38" class="Socialdemokr."></circle>
<circle cx="-12.627521546" cy="-3.9619104445" r="0.5412428878643918" fill="#c13b38" class="Socialdemokr."></circle>
<circle cx="-12.1619139851" cy="-5.2190883289" r="0.5412428878643918" fill="#c13b38" class="Socialdemokr."></circle>
<circle cx="-11.5715087289" cy="-6.4227113045" r="0.5412428878643918" fill="#c13b38" class="Socialdemokr."></circle>
<circle cx="-10.8623641345" cy="-7.5604285709" r="0.5412428878643918" fill="#c13b38" class="Socialdemokr."></circle>
<circle cx="-10.0417569849" cy="-8.6205656091" r="0.5412428878643918" fill="#c13b38" class="Socialdemokr."></circle>
<circle cx="-9.11810782" cy="-9.5922439788" r="0.5412428878643918" fill="#c13b38" class="Socialdemokr."></circle>
<circle cx="-8.10089453" cy="-10.4654929448" r="0.5412428878643918" fill="#c13b38" class="Socialdemokr."></circle>
<circle cx="-7.0005551" cy="-11.2313517912" r="0.5412428878643918" fill="#c13b38" class="Socialdemokr."></circle>
<circle cx="-5.8283805013" cy="-11.8819617697" r="0.5412428878643918" fill="#c13b38" class="Socialdemokr."></circle>
<circle cx="-4.5963988316" cy="-12.4106467416" r="0.5412428878643918" fill="#e7d960" class="Sverigedemokr."></circle>
<circle cx="-3.31725189" cy="-12.8119816837" r="0.5412428878643918" fill="#e7d960" class="Sverigedemokr."></circle>
<circle cx="-2.0040654551" cy="-13.0818483563" r="0.5412428878643918" fill="#e7d960" class="Sverigedemokr."></circle>
<circle cx="-0.6703145966" cy="-13.2174775622" r="0.5412428878643918" fill="#e7d960" class="Sverigedemokr."></circle>
<circle cx="0.6703145966" cy="-13.2174775622" r="0.5412428878643918" fill="#e7d960" class="Sverigedemokr."></circle>
<circle cx="2.0040654551" cy="-13.0818483563" r="0.5412428878643918" fill="#e7d960" class="Sverigedemokr."></circle>
<circle cx="3.31725189" cy="-12.8119816837" r="0.5412428878643918" fill="#78ae5a" class="Centerpartiet"></circle>
<circle cx="4.5963988316" cy="-12.4106467416" r="0.5412428878643918" fill="#78ae5a" class="Centerpartiet"></circle>
<circle cx="5.8283805013" cy="-11.8819617697" r="0.5412428878643918" fill="#78ae5a" class="Centerpartiet"></circle>
<circle cx="7.0005551" cy="-11.2313517912" r="0.5412428878643918" fill="#78ae5a" class="Centerpartiet"></circle>
<circle cx="8.10089453" cy="-10.4654929448" r="0.5412428878643918" fill="#378cab" class="Liberalerna"></circle>
<circle cx="9.11810782" cy="-9.5922439788" r="0.5412428878643918" fill="#378cab" class="Liberalerna"></circle>
<circle cx="10.0417569849" cy="-8.6205656091" r="0.5412428878643918" fill="#88c7d9" class="Moderaterna"></circle>
<circle cx="10.8623641345" cy="-7.5604285709" r="0.5412428878643918" fill="#88c7d9" class="Moderaterna"></circle>
<circle cx="11.5715087289" cy="-6.4227113045" r="0.5412428878643918" fill="#88c7d9" class="Moderaterna"></circle>
<circle cx="12.1619139851" cy="-5.2190883289" r="0.5412428878643918" fill="#88c7d9" class="Moderaterna"></circle>
<circle cx="12.627521546" cy="-3.9619104445" r="0.5412428878643918" fill="#88c7d9" class="Moderaterna"></circle>
<circle cx="12.9635536481" cy="-2.6640779976" r="0.5412428878643918" fill="#88c7d9" class="Moderaterna"></circle>
<circle cx="13.1665621473" cy="-1.3389085053" r="0.5412428878643918" fill="#366da3" class="Kristdemokr."></circle>
<circle cx="13.2344639017" cy="0" r="0.5412428878643918" fill="#366da3" class="Kristdemokr."></circle>
<circle cx="-11.881356682" cy="0" r="0.5412428878643918" fill="#acc768" class="Miljöpartiet"></circle>
<circle cx="-11.8010191986" cy="-1.379341321" r="0.5412428878643918" fill="#acc768" class="Miljöpartiet"></circle>
<circle cx="-11.561093175" cy="-2.7400294168" r="0.5412428878643918" fill="#c13b38" class="Socialdemokr."></circle>
<circle cx="-11.164823199" cy="-4.0636633153" r="0.5412428878643918" fill="#c13b38" class="Socialdemokr."></circle>
<circle cx="-10.6175681424" cy="-5.3323431386" r="0.5412428878643918" fill="#c13b38" class="Socialdemokr."></circle>
<circle cx="-9.9267286909" cy="-6.5289121684" r="0.5412428878643918" fill="#c13b38" class="Socialdemokr."></circle>
<circle cx="-9.101647263" cy="-7.6371888615" r="0.5412428878643918" fill="#c13b38" class="Socialdemokr."></circle>
<circle cx="-8.1534816696" cy="-8.6421856766" r="0.5412428878643918" fill="#c13b38" class="Socialdemokr."></circle>
<circle cx="-7.0950542238" cy="-9.5303117561" r="0.5412428878643918" fill="#c13b38" class="Socialdemokr."></circle>
<circle cx="-5.940678341" cy="-10.2895567181" r="0.5412428878643918" fill="#c13b38" class="Socialdemokr."></circle>
<circle cx="-4.7059649748" cy="-10.909653077" r="0.5412428878643918" fill="#c13b38" class="Socialdemokr."></circle>
<circle cx="-3.4076115054" cy="-11.3822150935" r="0.5412428878643918" fill="#e7d960" class="Sverigedemokr."></circle>
<circle cx="-2.063175936" cy="-11.7008521768" r="0.5412428878643918" fill="#e7d960" class="Sverigedemokr."></circle>
<circle cx="-0.6908394515" cy="-11.861255307" r="0.5412428878643918" fill="#e7d960" class="Sverigedemokr."></circle>
<circle cx="0.6908394515" cy="-11.861255307" r="0.5412428878643918" fill="#e7d960" class="Sverigedemokr."></circle>
<circle cx="2.063175936" cy="-11.7008521768" r="0.5412428878643918" fill="#e7d960" class="Sverigedemokr."></circle>
<circle cx="3.4076115054" cy="-11.3822150935" r="0.5412428878643918" fill="#78ae5a" class="Centerpartiet"></circle>
<circle cx="4.7059649748" cy="-10.909653077" r="0.5412428878643918" fill="#78ae5a" class="Centerpartiet"></circle>
<circle cx="5.940678341" cy="-10.2895567181" r="0.5412428878643918" fill="#78ae5a" class="Centerpartiet"></circle>
<circle cx="7.0950542238" cy="-9.5303117561" r="0.5412428878643918" fill="#78ae5a" class="Centerpartiet"></circle>
<circle cx="8.1534816696" cy="-8.6421856766" r="0.5412428878643918" fill="#378cab" class="Liberalerna"></circle>
<circle cx="9.101647263" cy="-7.6371888615" r="0.5412428878643918" fill="#88c7d9" class="Moderaterna"></circle>
<circle cx="9.9267286909" cy="-6.5289121684" r="0.5412428878643918" fill="#88c7d9" class="Moderaterna"></circle>
<circle cx="10.6175681424" cy="-5.3323431386" r="0.5412428878643918" fill="#88c7d9" class="Moderaterna"></circle>
<circle cx="11.164823199" cy="-4.0636633153" r="0.5412428878643918" fill="#88c7d9" class="Moderaterna"></circle>
<circle cx="11.561093175" cy="-2.7400294168" r="0.5412428878643918" fill="#88c7d9" class="Moderaterna"></circle>
<circle cx="11.8010191986" cy="-1.379341321" r="0.5412428878643918" fill="#88c7d9" class="Moderaterna"></circle>
<circle cx="11.881356682" cy="0" r="0.5412428878643918" fill="#366da3" class="Kristdemokr."></circle>
<circle cx="-10.5282494624" cy="0" r="0.5412428878643918" fill="#acc768" class="Miljöpartiet"></circle>
<circle cx="-10.4381788287" cy="-1.3742123131" r="0.5412428878643918" fill="#acc768" class="Miljöpartiet"></circle>
<circle cx="-10.1695080613" cy="-2.7249114725" r="0.5412428878643918" fill="#c13b38" class="Socialdemokr."></circle>
<circle cx="-9.7268341915" cy="-4.0289866411" r="0.5412428878643918" fill="#c13b38" class="Socialdemokr."></circle>
<circle cx="-9.1177314918" cy="-5.2641247312" r="0.5412428878643918" fill="#c13b38" class="Socialdemokr."></circle>
<circle cx="-8.3526218784" cy="-6.4091921877" r="0.5412428878643918" fill="#c13b38" class="Socialdemokr."></circle>
<circle cx="-7.4445965889" cy="-7.4445965889" r="0.5412428878643918" fill="#c13b38" class="Socialdemokr."></circle>
<circle cx="-6.4091921877" cy="-8.3526218784" r="0.5412428878643918" fill="#c13b38" class="Socialdemokr."></circle>
<circle cx="-5.2641247312" cy="-9.1177314918" r="0.5412428878643918" fill="#c13b38" class="Socialdemokr."></circle>
<circle cx="-4.0289866411" cy="-9.7268341915" r="0.5412428878643918" fill="#c13b38" class="Socialdemokr."></circle>
<circle cx="-2.7249114725" cy="-10.1695080613" r="0.5412428878643918" fill="#e7d960" class="Sverigedemokr."></circle>
<circle cx="-1.3742123131" cy="-10.4381788287" r="0.5412428878643918" fill="#e7d960" class="Sverigedemokr."></circle>
<circle cx="0" cy="-10.5282494624" r="0.5412428878643918" fill="#e7d960" class="Sverigedemokr."></circle>
<circle cx="1.3742123131" cy="-10.4381788287" r="0.5412428878643918" fill="#e7d960" class="Sverigedemokr."></circle>
<circle cx="2.7249114725" cy="-10.1695080613" r="0.5412428878643918" fill="#78ae5a" class="Centerpartiet"></circle>
<circle cx="4.0289866411" cy="-9.7268341915" r="0.5412428878643918" fill="#78ae5a" class="Centerpartiet"></circle>
<circle cx="5.2641247312" cy="-9.1177314918" r="0.5412428878643918" fill="#78ae5a" class="Centerpartiet"></circle>
<circle cx="6.4091921877" cy="-8.3526218784" r="0.5412428878643918" fill="#78ae5a" class="Centerpartiet"></circle>
<circle cx="7.4445965889" cy="-7.4445965889" r="0.5412428878643918" fill="#378cab" class="Liberalerna"></circle>
<circle cx="8.3526218784" cy="-6.4091921877" r="0.5412428878643918" fill="#88c7d9" class="Moderaterna"></circle>
<circle cx="9.1177314918" cy="-5.2641247312" r="0.5412428878643918" fill="#88c7d9" class="Moderaterna"></circle>
<circle cx="9.7268341915" cy="-4.0289866411" r="0.5412428878643918" fill="#88c7d9" class="Moderaterna"></circle>
<circle cx="10.1695080613" cy="-2.7249114725" r="0.5412428878643918" fill="#88c7d9" class="Moderaterna"></circle>
<circle cx="10.4381788287" cy="-1.3742123131" r="0.5412428878643918" fill="#88c7d9" class="Moderaterna"></circle>
<circle cx="10.5282494624" cy="0" r="0.5412428878643918" fill="#366da3" class="Kristdemokr."></circle>
<circle cx="-9.1751422427" cy="0" r="0.5412428878643918" fill="#acc768" class="Miljöpartiet"></circle>
<circle cx="-9.0726634846" cy="-1.3674839923" r="0.5412428878643918" fill="#acc768" class="Miljöpartiet"></circle>
<circle cx="-8.7675164164" cy="-2.704420652" r="0.5412428878643918" fill="#c13b38" class="Socialdemokr."></circle>
<circle cx="-8.2665175193" cy="-3.9809450232" r="0.5412428878643918" fill="#c13b38" class="Socialdemokr."></circle>
<circle cx="-7.5808582808" cy="-5.1685416609" r="0.5412428878643918" fill="#c13b38" class="Socialdemokr."></circle>
<circle cx="-6.7258551953" cy="-6.2406816187" r="0.5412428878643918" fill="#c13b38" class="Socialdemokr."></circle>
<circle cx="-5.7206076189" cy="-7.1734150615" r="0.5412428878643918" fill="#c13b38" class="Socialdemokr."></circle>
<circle cx="-4.5875711214" cy="-7.9459062655" r="0.5412428878643918" fill="#c13b38" class="Socialdemokr."></circle>
<circle cx="-3.3520558657" cy="-8.5408990538" r="0.5412428878643918" fill="#c13b38" class="Socialdemokr."></circle>
<circle cx="-2.041661221" cy="-8.9451022707" r="0.5412428878643918" fill="#e7d960" class="Sverigedemokr."></circle>
<circle cx="-0.6856592385" cy="-9.1494866841" r="0.5412428878643918" fill="#e7d960" class="Sverigedemokr."></circle>
<circle cx="0.6856592385" cy="-9.1494866841" r="0.5412428878643918" fill="#e7d960" class="Sverigedemokr."></circle>
<circle cx="2.041661221" cy="-8.9451022707" r="0.5412428878643918" fill="#78ae5a" class="Centerpartiet"></circle>
<circle cx="3.3520558657" cy="-8.5408990538" r="0.5412428878643918" fill="#78ae5a" class="Centerpartiet"></circle>
<circle cx="4.5875711214" cy="-7.9459062655" r="0.5412428878643918" fill="#78ae5a" class="Centerpartiet"></circle>
<circle cx="5.7206076189" cy="-7.1734150615" r="0.5412428878643918" fill="#78ae5a" class="Centerpartiet"></circle>
<circle cx="6.7258551953" cy="-6.2406816187" r="0.5412428878643918" fill="#378cab" class="Liberalerna"></circle>
<circle cx="7.5808582808" cy="-5.1685416609" r="0.5412428878643918" fill="#88c7d9" class="Moderaterna"></circle>
<circle cx="8.2665175193" cy="-3.9809450232" r="0.5412428878643918" fill="#88c7d9" class="Moderaterna"></circle>
<circle cx="8.7675164164" cy="-2.704420652" r="0.5412428878643918" fill="#88c7d9" class="Moderaterna"></circle>
<circle cx="9.0726634846" cy="-1.3674839923" r="0.5412428878643918" fill="#88c7d9" class="Moderaterna"></circle>
<circle cx="9.1751422427" cy="0" r="0.5412428878643918" fill="#366da3" class="Kristdemokr."></circle>
<circle cx="-7.8220350231" cy="0" r="0.5412428878643918" fill="#acc768" class="Miljöpartiet"></circle>
<circle cx="-7.703200735" cy="-1.3582821274" r="0.5412428878643918" fill="#acc768" class="Miljöpartiet"></circle>
<circle cx="-7.3503085907" cy="-2.6752935397" r="0.5412428878643918" fill="#c13b38" class="Socialdemokr."></circle>
<circle cx="-6.7740810393" cy="-3.9110175115" r="0.5412428878643918" fill="#c13b38" class="Socialdemokr."></circle>
<circle cx="-5.9920264633" cy="-5.0279071954" r="0.5412428878643918" fill="#c13b38" class="Socialdemokr."></circle>
<circle cx="-5.0279071954" cy="-5.9920264633" r="0.5412428878643918" fill="#c13b38" class="Socialdemokr."></circle>
<circle cx="-3.9110175115" cy="-6.7740810393" r="0.5412428878643918" fill="#c13b38" class="Socialdemokr."></circle>
<circle cx="-2.6752935397" cy="-7.3503085907" r="0.5412428878643918" fill="#c13b38" class="Socialdemokr."></circle><circle cx="-1.3582821274" cy="-7.703200735" r="0.5412428878643918" fill="#e7d960" class="Sverigedemokr."></circle>
<circle cx="0" cy="-7.8220350231" r="0.5412428878643918" fill="#e7d960" class="Sverigedemokr."></circle>
<circle cx="1.3582821274" cy="-7.703200735" r="0.5412428878643918" fill="#e7d960" class="Sverigedemokr."></circle>
<circle cx="2.6752935397" cy="-7.3503085907" r="0.5412428878643918" fill="#78ae5a" class="Centerpartiet"></circle>
<circle cx="3.9110175115" cy="-6.7740810393" r="0.5412428878643918" fill="#78ae5a" class="Centerpartiet"></circle>
<circle cx="5.0279071954" cy="-5.9920264633" r="0.5412428878643918" fill="#78ae5a" class="Centerpartiet"></circle>
<circle cx="5.9920264633" cy="-5.0279071954" r="0.5412428878643918" fill="#378cab" class="Liberalerna"></circle>
<circle cx="6.7740810393" cy="-3.9110175115" r="0.5412428878643918" fill="#88c7d9" class="Moderaterna"></circle>
<circle cx="7.3503085907" cy="-2.6752935397" r="0.5412428878643918" fill="#88c7d9" class="Moderaterna"></circle>
<circle cx="7.703200735" cy="-1.3582821274" r="0.5412428878643918" fill="#88c7d9" class="Moderaterna"></circle>
<circle cx="7.8220350231" cy="0" r="0.5412428878643918" fill="#366da3" class="Kristdemokr."></circle>
<circle cx="-6.4689278034" cy="0" r="0.5412428878643918" fill="#acc768" class="Miljöpartiet"></circle>
<circle cx="-6.3275662102" cy="-1.3449657174" r="0.5412428878643918" fill="#c13b38" class="Socialdemokr."></circle>
<circle cx="-5.9096596106" cy="-2.6311499791" r="0.5412428878643918" fill="#c13b38" class="Socialdemokr."></circle>
<circle cx="-5.2334725283" cy="-3.802340361" r="0.5412428878643918" fill="#c13b38" class="Socialdemokr."></circle>
<circle cx="-4.3285575836" cy="-4.8073502235" r="0.5412428878643918" fill="#c13b38" class="Socialdemokr."></circle>
<circle cx="-3.2344639017" cy="-5.602255813" r="0.5412428878643918" fill="#c13b38" class="Socialdemokr."></circle>
<circle cx="-1.9990086266" cy="-6.1523159409" r="0.5412428878643918" fill="#e7d960" class="Sverigedemokr."></circle>
<circle cx="-0.6761870823" cy="-6.43349034" r="0.5412428878643918" fill="#e7d960" class="Sverigedemokr."></circle>
<circle cx="0.6761870823" cy="-6.43349034" r="0.5412428878643918" fill="#e7d960" class="Sverigedemokr."></circle>
<circle cx="1.9990086266" cy="-6.1523159409" r="0.5412428878643918" fill="#78ae5a" class="Centerpartiet"></circle>
<circle cx="3.2344639017" cy="-5.602255813" r="0.5412428878643918" fill="#78ae5a" class="Centerpartiet"></circle>
<circle cx="4.3285575836" cy="-4.8073502235" r="0.5412428878643918" fill="#378cab" class="Liberalerna"></circle>
<circle cx="5.2334725283" cy="-3.802340361" r="0.5412428878643918" fill="#88c7d9" class="Moderaterna"></circle>
<circle cx="5.9096596106" cy="-2.6311499791" r="0.5412428878643918" fill="#88c7d9" class="Moderaterna"></circle>
<circle cx="6.3275662102" cy="-1.3449657174" r="0.5412428878643918" fill="#88c7d9" class="Moderaterna"></circle>
<circle cx="6.4689278034" cy="0" r="0.5412428878643918" fill="#366da3" class="Kristdemokr."></circle>
</svg>